# xmcd CD database file
#
# Track frame offsets:
#	150
#	13062
#	26268
#	48260
#	61486
#	73513
#	93916
#	121092
#	134849
#	185943
#	199145
#	222574
#	241204
#	257091
#	275966
#	291794
#
# Disc length: 4064 seconds
#
# Revision: 0
# Processed by: cddbd v1.5.2PL0 Copyright (c) Steve Scherf et al.
# Submitted via: CDex 1.70beta2
#
DISCID=fd0fde10
DTITLE=Various Artist - Cuba - theintrocollection CD2
DYEAR=2008
DGENRE=Salsa
TTITLE0=Ibrahim Ferre - El Platanal De Bartolo
TTITLE1=Orquesta América - Me La Dijo Adela
TTITLE2=Omara Portuondo - Agua Que Cae Del Cielo
TTITLE3=Compay Segundo - La Calabaza
TTITLE4=Conjunto Senén Suárez - Ritmo En La Habana
TTITLE5=Ibrahim Ferrer - Compositor Confundido
TTITLE6=Conjunto Son 14 - Divina Silvia
TTITLE7=Duo Los Compadres - Como El Macao, Candela
TTITLE8=Estrellas De Aríto - Hasta Pantojo Baila Mi Son
TTITLE9=Compay Segundo - La Lengua
TTITLE10=Ibrahim Ferrer - Mi Tonada Montuna
TTITLE11=Compay Segundo - Pena
TTITLE12=Cuarteto Las D´Aida - Yo Si Tumbo Cana
TTITLE13=Gerenoso Jiménez "Tojo" Y Su Orquesta - Maracaibo Oriental
TTITLE14=Beny Moré - Que Te Pasa Jose
TTITLE15=Compay Segundo - Francisco Guayabal
EXTD=YEAR: 2008
EXTT0=
EXTT1=
EXTT2=
EXTT3=
EXTT4=
EXTT5=
EXTT6=
EXTT7=
EXTT8=
EXTT9=
EXTT10=
EXTT11=
EXTT12=
EXTT13=
EXTT14=
EXTT15=
PLAYORDER=
